<svg width="14" height="14" viewBox="0 0 14 14" fill="none" xmlns="http://www.w3.org/2000/svg">
<g clip-path="url(#clip0_855_6862)">
<path d="M11.6875 12.25H4.1875C4.03832 12.25 3.89524 12.1907 3.78975 12.0852C3.68426 11.9798 3.625 11.8367 3.625 11.6875V4C3.625 3.90054 3.66451 3.80516 3.73484 3.73484C3.80516 3.66451 3.90054 3.625 4 3.625H11.6875C11.8367 3.625 11.9798 3.68426 12.0852 3.78975C12.1907 3.89524 12.25 4.03832 12.25 4.1875V11.6875C12.25 11.8367 12.1907 11.9798 12.0852 12.0852C11.9798 12.1907 11.8367 12.25 11.6875 12.25Z" fill="#A09FA6"/>
<path d="M3.625 2.875H10.375V2.3125C10.375 2.16332 10.3157 2.02024 10.2102 1.91475C10.1048 1.80926 9.96168 1.75 9.8125 1.75H2.40625C2.2322 1.75 2.06528 1.81914 1.94221 1.94221C1.81914 2.06528 1.75 2.2322 1.75 2.40625V9.8125C1.75 9.96168 1.80926 10.1048 1.91475 10.2102C2.02024 10.3157 2.16332 10.375 2.3125 10.375H2.875V3.625C2.875 3.42609 2.95402 3.23532 3.09467 3.09467C3.23532 2.95402 3.42609 2.875 3.625 2.875Z" fill="#A09FA6"/>
</g>
<defs>
<clipPath id="clip0_855_6862">
<rect width="12" height="12" fill="white" transform="translate(1 1)"/>
</clipPath>
</defs>
</svg>
