<svg width="14" height="14" viewBox="0 0 14 14" fill="none" xmlns="http://www.w3.org/2000/svg">
<path d="M7.4375 4.375V8.40465L9.1875 6.65465L9.80629 7.27344L7 10.0797L4.19371 7.27344L4.8125 6.65465L6.5625 8.40465V4.375H2.51562C2.4286 4.375 2.34514 4.40957 2.28361 4.47111C2.22207 4.53264 2.1875 4.6161 2.1875 4.70312V12.7969C2.1875 12.8839 2.22207 12.9674 2.28361 13.0289C2.34514 13.0904 2.4286 13.125 2.51562 13.125H11.4844C11.5714 13.125 11.6549 13.0904 11.7164 13.0289C11.7779 12.9674 11.8125 12.8839 11.8125 12.7969V4.70312C11.8125 4.6161 11.7779 4.53264 11.7164 4.47111C11.6549 4.40957 11.5714 4.375 11.4844 4.375H7.4375ZM6.5625 0.875H7.4375V4.375H6.5625V0.875Z" fill="#A09FA6"/>
</svg>
